<mxfile host="app.diagrams.net" modified="2024-01-16T12:05:32.873Z" agent="Mozilla/5.0 (Windows NT 10.0; Win64; x64; rv:121.0) Gecko/20100101 Firefox/121.0" etag="MURiK0tNH59BTWPVqVxS" version="22.1.18" type="github">
  <diagram name="Page-1" id="90ahfY_ULuQqxvPG4P39">
    <mxGraphModel dx="1434" dy="754" grid="1" gridSize="10" guides="1" tooltips="1" connect="1" arrows="1" fold="1" page="1" pageScale="1" pageWidth="850" pageHeight="1100" math="0" shadow="0">
      <root>
        <mxCell id="0" />
        <mxCell id="1" parent="0" />
        <mxCell id="Plsr217Ogj1veVX39GXn-6" style="edgeStyle=orthogonalEdgeStyle;rounded=0;orthogonalLoop=1;jettySize=auto;html=1;entryX=0.5;entryY=0;entryDx=0;entryDy=0;" edge="1" parent="1" source="Plsr217Ogj1veVX39GXn-2" target="Plsr217Ogj1veVX39GXn-3">
          <mxGeometry relative="1" as="geometry" />
        </mxCell>
        <mxCell id="Plsr217Ogj1veVX39GXn-13" style="edgeStyle=orthogonalEdgeStyle;rounded=0;orthogonalLoop=1;jettySize=auto;html=1;" edge="1" parent="1" source="Plsr217Ogj1veVX39GXn-2">
          <mxGeometry relative="1" as="geometry">
            <mxPoint x="180" y="120" as="targetPoint" />
          </mxGeometry>
        </mxCell>
        <mxCell id="Plsr217Ogj1veVX39GXn-16" style="edgeStyle=orthogonalEdgeStyle;rounded=0;orthogonalLoop=1;jettySize=auto;html=1;exitX=1;exitY=0;exitDx=0;exitDy=0;entryX=0;entryY=1;entryDx=0;entryDy=0;" edge="1" parent="1" source="Plsr217Ogj1veVX39GXn-2" target="Plsr217Ogj1veVX39GXn-10">
          <mxGeometry relative="1" as="geometry">
            <Array as="points">
              <mxPoint x="208" y="140" />
              <mxPoint x="240" y="140" />
              <mxPoint x="240" y="100" />
            </Array>
          </mxGeometry>
        </mxCell>
        <mxCell id="Plsr217Ogj1veVX39GXn-21" style="edgeStyle=orthogonalEdgeStyle;rounded=0;orthogonalLoop=1;jettySize=auto;html=1;entryX=0;entryY=0;entryDx=0;entryDy=0;" edge="1" parent="1" source="Plsr217Ogj1veVX39GXn-2" target="Plsr217Ogj1veVX39GXn-18">
          <mxGeometry relative="1" as="geometry" />
        </mxCell>
        <mxCell id="Plsr217Ogj1veVX39GXn-2" value="&lt;font style=&quot;font-size: 18px;&quot;&gt;Idle&lt;/font&gt;" style="ellipse;whiteSpace=wrap;html=1;aspect=fixed;" vertex="1" parent="1">
          <mxGeometry x="140" y="160" width="80" height="80" as="geometry" />
        </mxCell>
        <mxCell id="Plsr217Ogj1veVX39GXn-7" style="edgeStyle=orthogonalEdgeStyle;rounded=0;orthogonalLoop=1;jettySize=auto;html=1;exitX=0.5;exitY=0;exitDx=0;exitDy=0;entryX=0.5;entryY=1;entryDx=0;entryDy=0;" edge="1" parent="1" source="Plsr217Ogj1veVX39GXn-3" target="Plsr217Ogj1veVX39GXn-2">
          <mxGeometry relative="1" as="geometry" />
        </mxCell>
        <mxCell id="Plsr217Ogj1veVX39GXn-8" style="edgeStyle=orthogonalEdgeStyle;rounded=0;orthogonalLoop=1;jettySize=auto;html=1;exitX=0.5;exitY=1;exitDx=0;exitDy=0;entryX=0.5;entryY=0;entryDx=0;entryDy=0;" edge="1" parent="1" source="Plsr217Ogj1veVX39GXn-3" target="Plsr217Ogj1veVX39GXn-4">
          <mxGeometry relative="1" as="geometry" />
        </mxCell>
        <mxCell id="Plsr217Ogj1veVX39GXn-20" style="edgeStyle=orthogonalEdgeStyle;rounded=0;orthogonalLoop=1;jettySize=auto;html=1;" edge="1" parent="1" source="Plsr217Ogj1veVX39GXn-3" target="Plsr217Ogj1veVX39GXn-18">
          <mxGeometry relative="1" as="geometry" />
        </mxCell>
        <mxCell id="Plsr217Ogj1veVX39GXn-3" value="&lt;font style=&quot;font-size: 18px;&quot;&gt;Walking&lt;/font&gt;" style="ellipse;whiteSpace=wrap;html=1;aspect=fixed;" vertex="1" parent="1">
          <mxGeometry x="140" y="280" width="80" height="80" as="geometry" />
        </mxCell>
        <mxCell id="Plsr217Ogj1veVX39GXn-9" style="edgeStyle=orthogonalEdgeStyle;rounded=0;orthogonalLoop=1;jettySize=auto;html=1;exitX=0.5;exitY=0;exitDx=0;exitDy=0;" edge="1" parent="1" source="Plsr217Ogj1veVX39GXn-4">
          <mxGeometry relative="1" as="geometry">
            <mxPoint x="180" y="370" as="targetPoint" />
          </mxGeometry>
        </mxCell>
        <mxCell id="Plsr217Ogj1veVX39GXn-19" style="edgeStyle=orthogonalEdgeStyle;rounded=0;orthogonalLoop=1;jettySize=auto;html=1;entryX=0.5;entryY=1;entryDx=0;entryDy=0;" edge="1" parent="1" source="Plsr217Ogj1veVX39GXn-4" target="Plsr217Ogj1veVX39GXn-18">
          <mxGeometry relative="1" as="geometry" />
        </mxCell>
        <mxCell id="Plsr217Ogj1veVX39GXn-4" value="&lt;font style=&quot;font-size: 18px;&quot;&gt;Running&lt;/font&gt;" style="ellipse;whiteSpace=wrap;html=1;" vertex="1" parent="1">
          <mxGeometry x="135" y="400" width="90" height="80" as="geometry" />
        </mxCell>
        <mxCell id="Plsr217Ogj1veVX39GXn-17" style="edgeStyle=orthogonalEdgeStyle;rounded=0;orthogonalLoop=1;jettySize=auto;html=1;exitX=0;exitY=1;exitDx=0;exitDy=0;entryX=1;entryY=0;entryDx=0;entryDy=0;" edge="1" parent="1" source="Plsr217Ogj1veVX39GXn-10" target="Plsr217Ogj1veVX39GXn-2">
          <mxGeometry relative="1" as="geometry">
            <Array as="points">
              <mxPoint x="240" y="100" />
              <mxPoint x="240" y="140" />
              <mxPoint x="208" y="140" />
            </Array>
          </mxGeometry>
        </mxCell>
        <mxCell id="Plsr217Ogj1veVX39GXn-22" style="edgeStyle=orthogonalEdgeStyle;rounded=0;orthogonalLoop=1;jettySize=auto;html=1;exitX=0.5;exitY=1;exitDx=0;exitDy=0;" edge="1" parent="1" source="Plsr217Ogj1veVX39GXn-10">
          <mxGeometry relative="1" as="geometry">
            <mxPoint x="310" y="250" as="targetPoint" />
          </mxGeometry>
        </mxCell>
        <mxCell id="Plsr217Ogj1veVX39GXn-10" value="&lt;font style=&quot;font-size: 18px;&quot;&gt;Crouching&lt;/font&gt;" style="ellipse;whiteSpace=wrap;html=1;" vertex="1" parent="1">
          <mxGeometry x="250" y="40" width="90" height="70" as="geometry" />
        </mxCell>
        <mxCell id="Plsr217Ogj1veVX39GXn-12" style="edgeStyle=orthogonalEdgeStyle;rounded=0;orthogonalLoop=1;jettySize=auto;html=1;entryX=0.5;entryY=0;entryDx=0;entryDy=0;" edge="1" parent="1" source="Plsr217Ogj1veVX39GXn-11" target="Plsr217Ogj1veVX39GXn-2">
          <mxGeometry relative="1" as="geometry" />
        </mxCell>
        <mxCell id="Plsr217Ogj1veVX39GXn-11" value="&lt;font style=&quot;font-size: 18px;&quot;&gt;Flying&lt;/font&gt;" style="ellipse;whiteSpace=wrap;html=1;" vertex="1" parent="1">
          <mxGeometry x="130" y="30" width="90" height="80" as="geometry" />
        </mxCell>
        <mxCell id="Plsr217Ogj1veVX39GXn-18" value="&lt;font style=&quot;font-size: 18px;&quot;&gt;Jumping&lt;/font&gt;" style="ellipse;whiteSpace=wrap;html=1;" vertex="1" parent="1">
          <mxGeometry x="300" y="240" width="85" height="80" as="geometry" />
        </mxCell>
        <mxCell id="Plsr217Ogj1veVX39GXn-23" value="Falling" style="ellipse;whiteSpace=wrap;html=1;" vertex="1" parent="1">
          <mxGeometry x="360" y="140" width="120" height="80" as="geometry" />
        </mxCell>
      </root>
    </mxGraphModel>
  </diagram>
</mxfile>
